<?xml version="1.0" encoding="UTF-8" standalone="no"?>
<svg width="69px" height="63px" viewBox="0 0 69 63" version="1.1" xmlns="http://www.w3.org/2000/svg" xmlns:xlink="http://www.w3.org/1999/xlink" xmlns:sketch="http://www.bohemiancoding.com/sketch/ns">
    <!-- Generator: Sketch 3.3 (11970) - http://www.bohemiancoding.com/sketch -->
    <title>Shape</title>
    <desc>Created with Sketch.</desc>
    <defs></defs>
    <g id="Page-1" stroke="none" stroke-width="1" fill="none" fill-rule="evenodd" sketch:type="MSPage">
        <g id="Desktop-HD" sketch:type="MSArtboardGroup" transform="translate(-685.000000, -330.000000)" fill="#ECECEC">
            <path d="M743.7075,353.107 L741.3605,347.631 C740.9595,346.698 740.2145,345.952 739.2785,345.551 L733.8035,343.204 L739.2785,340.857 C740.2145,340.457 740.9585,339.711 741.3605,338.777 L743.7075,333.301 L746.0525,338.777 C746.4545,339.712 747.1995,340.457 748.1345,340.857 L753.6115,343.204 L748.1345,345.551 C747.1995,345.952 746.4555,346.698 746.0525,347.631 L743.7075,353.107 Z M726.1015,338.803 L725.0575,336.37 C724.8795,335.953 724.5505,335.622 724.1345,335.446 L721.7005,334.402 L724.1345,333.359 C724.5505,333.181 724.8805,332.85 725.0575,332.436 L726.1015,330 L727.1435,332.436 C727.3225,332.851 727.6545,333.182 728.0675,333.359 L730.5025,334.402 L728.0675,335.446 C727.6535,335.622 727.3215,335.953 727.1435,336.37 L726.1015,338.803 Z M731.6035,379.516 C717.0185,379.516 705.1955,367.691 705.1955,353.107 C705.1955,346.387 707.7265,340.273 711.8605,335.61 C697.0625,336.706 685.3885,349.033 685.3885,364.111 C685.3885,379.911 698.1965,392.72 713.9975,392.72 C724.5315,392.72 733.7155,387.009 738.6805,378.527 C736.4225,379.155 734.0565,379.516 731.6035,379.516 Z" id="Shape" sketch:type="MSShapeGroup"></path>
        </g>
    </g>
</svg>