<?xml version="1.0" encoding="UTF-8" standalone="no"?>
<svg width="116px" height="29px" viewBox="0 0 116 29" version="1.1" xmlns="http://www.w3.org/2000/svg" xmlns:xlink="http://www.w3.org/1999/xlink" xmlns:sketch="http://www.bohemiancoding.com/sketch/ns">
    <!-- Generator: Sketch 3.3 (11970) - http://www.bohemiancoding.com/sketch -->
    <title>Fill 1</title>
    <desc>Created with Sketch.</desc>
    <defs></defs>
    <g id="Page-1" stroke="none" stroke-width="1" fill="none" fill-rule="evenodd" sketch:type="MSPage">
        <g id="Desktop-HD" sketch:type="MSArtboardGroup" transform="translate(-68.000000, -63.000000)" fill="#848484">
            <path d="M96.629,84.485 L96.629,65.991 C96.629,65.355 97.216,65.061 98.341,65.061 L99.368,65.061 C100.543,65.061 101.081,65.379 101.081,65.991 L101.081,73.721 L101.203,73.77 L106.218,65.648 C106.414,65.306 107.001,65.11 107.93,65.11 L109.3,65.11 C110.401,65.11 110.915,65.257 110.915,65.55 C110.915,65.697 110.842,65.942 110.67,66.186 L105.166,74.7 L111.502,84.387 C111.649,84.631 111.747,84.827 111.747,85.023 C111.747,85.292 111.208,85.463 110.132,85.463 L108.444,85.463 C107.466,85.463 106.878,85.267 106.683,84.925 L101.203,76.118 L101.081,76.167 L101.081,84.534 C101.081,85.17 100.494,85.463 99.368,85.463 L98.341,85.463 C97.216,85.414 96.629,85.121 96.629,84.485 Z M114.242,83.58 C113.019,82.259 112.432,80.301 112.432,77.782 C112.432,75.287 113.019,73.33 114.242,71.984 C115.465,70.663 117.177,70.003 119.477,70.003 C121.776,70.003 123.513,70.663 124.688,71.984 C125.862,73.305 126.449,75.238 126.449,77.782 C126.449,80.326 125.862,82.234 124.688,83.58 C123.513,84.901 121.752,85.561 119.477,85.561 C117.177,85.585 115.465,84.925 114.242,83.58 Z M116.786,77.806 C116.786,80.742 117.691,82.234 119.453,82.234 C121.214,82.234 122.119,80.742 122.119,77.806 C122.119,74.871 121.214,73.379 119.453,73.379 C117.691,73.379 116.786,74.871 116.786,77.806 Z M134.301,85.585 C132.687,85.585 131.415,84.876 130.387,83.506 C129.36,82.136 128.895,80.228 128.895,77.831 C128.895,75.458 129.433,73.501 130.51,72.131 C131.562,70.712 133.078,70.027 135.011,70.027 C136.136,70.027 137.115,70.345 137.946,70.932 L137.946,64.523 C137.946,63.887 138.534,63.593 139.659,63.593 L140.49,63.593 C141.665,63.593 142.203,63.911 142.203,64.523 L142.203,80.277 C142.203,81.5 142.252,82.454 142.35,83.286 L142.497,84.46 C142.497,84.778 142.105,84.998 141.322,85.17 C140.539,85.316 139.952,85.414 139.561,85.414 C139.169,85.414 138.925,85.365 138.778,85.292 C138.656,85.219 138.534,85.096 138.46,84.901 C138.387,84.754 138.338,84.582 138.313,84.46 C138.264,84.338 138.24,84.142 138.191,83.922 C138.142,83.653 138.118,83.482 138.069,83.457 C137.726,84.093 137.213,84.631 136.503,85.023 C135.916,85.39 135.158,85.585 134.301,85.585 Z M135.549,82.112 C136.479,82.112 137.261,81.525 137.922,80.399 L137.922,73.941 C137.261,73.599 136.601,73.403 135.891,73.403 C134.081,73.403 133.201,74.846 133.201,77.733 C133.201,80.668 133.983,82.112 135.549,82.112 Z M147.389,67.752 C146.215,67.752 145.677,67.434 145.677,66.822 L145.677,64.474 C145.677,63.838 146.264,63.544 147.389,63.544 L148.221,63.544 C149.395,63.544 149.933,63.862 149.933,64.474 L149.933,66.822 C149.933,67.458 149.346,67.752 148.221,67.752 L147.389,67.752 Z M145.677,84.485 L145.677,71.103 C145.677,70.467 146.264,70.174 147.389,70.174 L148.221,70.174 C149.395,70.174 149.933,70.492 149.933,71.103 L149.933,84.485 C149.933,85.121 149.346,85.414 148.221,85.414 L147.389,85.414 C146.264,85.414 145.677,85.121 145.677,84.485 Z M153.407,84.485 L153.407,75.336 C153.407,73.892 153.358,72.865 153.26,72.278 C153.138,71.69 153.113,71.348 153.113,71.226 C153.113,70.908 153.505,70.688 154.288,70.516 C155.07,70.37 155.657,70.272 156.049,70.272 C156.44,70.272 156.685,70.321 156.832,70.394 C156.954,70.467 157.076,70.59 157.15,70.737 C157.223,70.883 157.272,71.055 157.297,71.128 C157.346,71.25 157.37,71.397 157.419,71.666 C157.468,71.911 157.492,72.057 157.541,72.131 C158.006,71.495 158.642,71.006 159.376,70.565 C160.159,70.125 160.99,69.929 161.847,69.929 C163.29,69.929 164.342,70.321 165.051,71.055 C165.761,71.788 166.103,73.012 166.103,74.577 L166.103,84.362 C166.103,84.998 165.516,85.292 164.391,85.292 L163.559,85.292 C162.385,85.292 161.847,84.974 161.847,84.362 L161.847,75.262 C161.847,74.039 161.26,73.452 160.134,73.452 C159.156,73.452 158.422,73.99 157.835,75.14 L157.835,84.411 C157.835,85.047 157.248,85.341 156.122,85.341 L155.266,85.341 C153.994,85.414 153.407,85.121 153.407,84.485 Z M168.403,87.494 C168.403,85.928 169.259,84.827 171.02,84.142 L171.069,84.02 C170.237,83.58 169.821,82.895 169.821,81.867 C169.821,80.84 170.409,80.057 171.534,79.445 C169.968,78.589 169.185,77.219 169.185,75.336 C169.185,73.452 169.773,72.082 170.898,71.275 C172.023,70.443 173.564,70.027 175.399,70.027 C176.133,70.027 176.891,70.1 177.625,70.272 L182.273,70.272 C182.86,70.272 183.129,70.737 183.129,71.715 L183.129,72.229 C183.129,73.134 182.885,73.599 182.42,73.599 C181.955,73.599 181.515,73.55 181.197,73.476 L181.148,73.599 C181.466,73.99 181.613,74.528 181.613,75.213 C181.613,76.926 181.075,78.222 179.974,79.054 C178.873,79.91 177.478,80.301 175.717,80.301 C174.543,80.301 173.956,80.57 173.956,81.084 C173.956,81.622 174.69,81.989 176.231,82.136 C177.747,82.283 179.166,82.601 180.463,83.066 C181.099,83.31 181.637,83.726 182.077,84.362 C182.518,84.998 182.738,85.732 182.738,86.588 C182.738,88.081 182.077,89.255 180.708,90.136 C179.338,91.016 177.552,91.457 175.301,91.457 C170.702,91.481 168.403,90.16 168.403,87.494 Z M172.586,86.784 C172.586,87.64 173.613,88.081 175.595,88.081 C177.576,88.081 178.604,87.616 178.604,86.662 C178.604,86.222 178.286,85.879 177.625,85.683 C176.965,85.488 175.815,85.341 174.151,85.219 C173.075,85.585 172.586,86.124 172.586,86.784 L172.586,86.784 Z M173.858,76.681 C174.249,77.023 174.787,77.195 175.424,77.195 C176.06,77.195 176.598,77.048 176.989,76.681 C177.381,76.339 177.625,75.825 177.625,75.164 C177.625,74.504 177.43,73.941 176.989,73.647 C176.598,73.305 176.06,73.134 175.424,73.134 C174.787,73.134 174.249,73.281 173.858,73.647 C173.467,73.99 173.222,74.504 173.222,75.164 C173.246,75.8 173.467,76.363 173.858,76.681 Z M68.129,64.97 L87.553,64.97 L87.553,70.009 L68.129,70.009 L68.129,64.97 Z M68.129,72.578 L83.027,72.578 L83.027,77.617 L68.129,77.617 L68.129,72.578 Z M68.129,80.162 L87.553,80.162 L87.553,85.201 L68.129,85.201 L68.129,80.162 Z" id="Fill-1" sketch:type="MSShapeGroup"></path>
        </g>
    </g>
</svg>